# Blender 4.0.1
# www.blender.org
mtllib pinboard.mtl
o Cube
v -2.970000 -1.500000 0.099000
v -2.970000 -1.485000 0.100000
v -3.000000 -1.485000 0.099000
v -2.970000 1.485000 0.100000
v -2.970000 1.500000 0.099000
v -3.000000 1.485000 0.099000
v -2.970000 -1.500000 -0.099000
v -2.821500 -1.380000 0.003817
v -2.850000 -1.366200 0.003817
v -3.000000 -1.485000 -0.099000
v -2.821500 -1.366200 0.002817
v -2.970000 -1.485000 -0.100000
v -2.821500 1.380000 0.003817
v -2.970000 1.500000 -0.099000
v -2.970000 1.485000 -0.100000
v -2.821500 1.366200 0.002817
v -2.850000 1.366200 0.003817
v -3.000000 1.485000 -0.099000
v 2.970000 -1.500000 0.099000
v 3.000000 -1.485000 0.099000
v 2.970000 -1.485000 0.100000
v 2.970000 1.500000 0.099000
v 2.970000 1.485000 0.100000
v 3.000000 1.485000 0.099000
v 2.821500 -1.380000 0.003817
v 2.970000 -1.500000 -0.099000
v 2.970000 -1.485000 -0.100000
v 2.821500 -1.366200 0.002817
v 3.000000 -1.485000 -0.099000
v 2.850000 -1.366200 0.003817
v 2.970000 1.500000 -0.099000
v 2.821500 1.380000 0.003817
v 2.850000 1.366200 0.003817
v 3.000000 1.485000 -0.099000
v 2.970000 1.485000 -0.100000
v 2.821500 1.366200 0.002817
v 2.850000 1.366200 0.100000
v 2.850000 -1.366200 0.100000
v 2.821500 -1.380000 0.100000
v 2.821500 1.380000 0.100000
v -2.850000 -1.366200 0.100000
v -2.850000 1.366200 0.100000
v -2.821500 -1.380000 0.100000
v -2.821500 1.380000 0.100000
vn -0.0000 -0.0000 1.0000
vn 1.0000 -0.0000 -0.0000
vn -0.0000 1.0000 -0.0000
vn -1.0000 -0.0000 -0.0000
vn -0.0000 -0.0000 -1.0000
vn -0.0332 -0.0665 0.9972
vn -0.0332 0.0665 0.9972
vn -0.0332 -0.0665 -0.9972
vn -0.0332 0.0665 -0.9972
vn 0.0332 -0.0665 0.9972
vn 0.0332 0.0665 0.9972
vn 0.0332 -0.0665 -0.9972
vn 0.0332 0.0665 -0.9972
vn -0.4472 -0.8944 -0.0000
vn -0.0333 -0.0000 0.9994
vn -0.4472 0.8944 -0.0000
vn -0.0333 -0.0000 -0.9994
vn -0.0000 -0.0665 -0.9978
vn -0.0000 0.0665 -0.9978
vn 0.0333 -0.0000 -0.9994
vn 0.4472 -0.8944 -0.0000
vn 0.4472 0.8944 -0.0000
vn 0.0333 -0.0000 0.9994
vn -0.0000 -0.0665 0.9978
vn -0.0000 0.0665 0.9978
vn -0.0000 -1.0000 -0.0000
vn 0.0350 0.0722 0.9968
vn 0.0350 -0.0722 0.9968
vn -0.0350 0.0722 0.9968
vn -0.0350 -0.0722 0.9968
vn 0.4358 0.9000 -0.0000
vn 0.4358 -0.9000 -0.0000
vn 0.0351 -0.0000 0.9994
vn -0.0000 0.0723 0.9974
vn -0.0000 -0.0723 0.9974
vn -0.0351 -0.0000 0.9994
vn -0.4358 0.9000 -0.0000
vn -0.4358 -0.9000 -0.0000
vt 0.385000 0.992562
vt 0.376250 0.998750
vt 0.376250 0.751250
vt 0.623750 0.751250
vt 0.623750 0.998750
vt 0.615000 0.992562
vt 0.615000 0.757437
vt 0.613850 0.756250
vt 0.386150 0.756250
vt 0.385000 0.757437
vt 0.386150 0.993750
vt 0.613850 0.993750
vt 0.376250 0.501250
vt 0.623750 0.501250
vt 0.623750 0.748750
vt 0.376250 0.748750
vt 0.626250 0.501250
vt 0.873750 0.501250
vt 0.873750 0.748750
vt 0.626250 0.748750
vt 0.376250 0.001250
vt 0.623750 0.001250
vt 0.623750 0.248750
vt 0.376250 0.248750
vt 0.376250 0.251250
vt 0.623750 0.251250
vt 0.623750 0.498750
vt 0.376250 0.498750
vt 0.126250 0.748750
vt 0.126250 0.750000
vt 0.125000 0.748750
vt 0.625000 0.998750
vt 0.623750 1.000000
vt 0.126250 0.501250
vt 0.125000 0.501250
vt 0.126250 0.500000
vt 0.625000 0.251250
vt 0.623750 0.250000
vt 0.373750 0.748750
vt 0.375000 0.748750
vt 0.373750 0.750000
vt 0.625000 0.751250
vt 0.623750 0.750000
vt 0.373750 0.501250
vt 0.373750 0.500000
vt 0.375000 0.501250
vt 0.625000 0.501250
vt 0.623750 0.500000
vt 0.376250 0.000000
vt 0.623750 0.000000
vt 0.625000 0.001250
vt 0.625000 0.248750
vt 0.625000 0.498750
vt 0.376250 0.621479
vt 0.623750 0.621479
vt 0.626250 0.621479
vt 0.873750 0.621479
vt 0.623750 0.128521
vt 0.376250 0.128521
vt 0.126250 0.621479
vt 0.125000 0.621479
vt 0.625000 0.128521
vt 0.373750 0.621479
s 0
f 43/1/1 2/2/1 21/3/1 23/4/1 4/5/1 44/6/1 40/7/1 37/8/1 38/9/1 39/10/1
f 4/5/1 2/2/1 43/1/1 41/11/1 42/12/1 44/6/1
f 29/13/2 34/14/2 24/15/2 20/16/2
f 31/17/3 14/18/3 5/19/3 22/20/3
f 3/21/4 6/22/4 18/23/4 10/24/4
f 12/25/5 15/26/5 35/27/5 27/28/5
f 1/29/6 2/30/6 3/31/6
f 4/5/7 5/32/7 6/33/7
f 7/34/8 10/35/8 12/36/8
f 14/37/9 15/26/9 18/38/9
f 19/39/10 20/40/10 21/41/10
f 22/42/11 23/4/11 24/43/11
f 26/44/12 27/45/12 29/46/12
f 31/47/13 34/14/13 35/48/13
f 7/34/14 1/29/14 3/31/14 10/35/14
f 2/49/15 4/50/15 6/22/15 3/21/15
f 5/51/16 14/52/16 18/23/16 6/22/16
f 15/26/17 12/25/17 10/24/17 18/23/17
f 26/44/18 7/34/18 12/36/18 27/45/18
f 14/37/19 31/53/19 35/27/19 15/26/19
f 34/14/20 29/13/20 27/28/20 35/27/20
f 19/39/21 26/44/21 29/13/21 20/16/21
f 31/17/22 22/20/22 24/15/22 34/14/22
f 23/4/23 21/3/23 20/16/23 24/15/23
f 1/29/24 19/39/24 21/41/24 2/30/24
f 22/42/25 5/32/25 4/5/25 23/4/25
f 7/34/26 26/44/26 19/39/26 1/29/26
f 33/14/4 30/13/4 38/54/4 37/55/4
f 13/18/26 32/17/26 40/56/26 44/57/26
f 9/24/2 17/23/2 42/58/2 41/59/2
f 11/25/1 28/28/1 36/27/1 16/26/1
f 8/34/27 11/36/27 9/35/27
f 13/37/28 17/38/28 16/26/28
f 25/44/29 30/46/29 28/45/29
f 32/47/30 36/48/30 33/14/30
f 43/60/31 8/34/31 9/35/31 41/61/31
f 42/58/32 17/23/32 13/52/32 44/62/32
f 16/26/33 17/23/33 9/24/33 11/25/33
f 25/44/34 28/45/34 11/36/34 8/34/34
f 13/37/35 16/26/35 36/27/35 32/53/35
f 33/14/36 36/27/36 28/28/36 30/13/36
f 38/54/37 30/13/37 25/44/37 39/63/37
f 40/56/38 32/17/38 33/14/38 37/55/38
f 39/63/3 25/44/3 8/34/3 43/60/3
